<svg width="14" height="14" viewBox="0 0 14 14" fill="none" xmlns="http://www.w3.org/2000/svg">
<path d="M13.1885 7.51971L13.9942 3.10956C14.004 3.05263 14.0013 2.99428 13.9865 2.93847C13.9717 2.88265 13.9451 2.83067 13.9084 2.78606C13.8722 2.74031 13.826 2.70344 13.7733 2.67827C13.7207 2.6531 13.663 2.64029 13.6046 2.64081H2.8398L2.49638 0.759233C2.45907 0.546471 2.34788 0.353684 2.18238 0.214806C2.01688 0.0759291 1.80768 -0.000135971 1.59161 1.82464e-07H0.396251C0.291158 1.82464e-07 0.19037 0.0417343 0.116059 0.116021C0.0417477 0.190309 0 0.291064 0 0.396122C0 0.50118 0.0417477 0.601935 0.116059 0.676222C0.19037 0.75051 0.291158 0.792244 0.396251 0.792244H1.59161C1.62137 0.793133 1.64996 0.804051 1.67274 0.823226C1.69552 0.8424 1.71114 0.868707 1.71709 0.897876L3.54644 10.9462C3.32022 11.1281 3.14386 11.3645 3.03385 11.6331C2.92384 11.9018 2.88377 12.1939 2.91739 12.4822C2.95101 12.7705 3.05722 13.0456 3.22608 13.2818C3.39495 13.5179 3.62097 13.7074 3.88299 13.8324C4.14501 13.9575 4.43448 14.0141 4.72434 13.997C5.0142 13.9799 5.29498 13.8895 5.54042 13.7344C5.78586 13.5793 5.98794 13.3645 6.12778 13.1101C6.26762 12.8557 6.34063 12.57 6.34001 12.2798C6.34133 11.9519 6.24725 11.6308 6.06924 11.3555H10.045C9.86693 11.6308 9.77286 11.9519 9.77418 12.2798C9.77418 12.6193 9.87488 12.9511 10.0636 13.2334C10.2522 13.5157 10.5204 13.7357 10.8342 13.8656C11.1479 13.9956 11.4932 14.0295 11.8263 13.9633C12.1593 13.8971 12.4653 13.7336 12.7054 13.4935C12.9456 13.2535 13.1091 12.9476 13.1754 12.6146C13.2416 12.2817 13.2076 11.9365 13.0776 11.6229C12.9477 11.3092 12.7276 11.0411 12.4452 10.8525C12.1629 10.6639 11.8309 10.5632 11.4913 10.5632H4.27951L3.94269 8.71468H11.762C12.1021 8.71388 12.4311 8.59385 12.6918 8.3755C12.9525 8.15714 13.1283 7.8543 13.1885 7.51971ZM5.54751 12.2798C5.54751 12.4626 5.49328 12.6413 5.39169 12.7933C5.29009 12.9453 5.14569 13.0637 4.97675 13.1337C4.8078 13.2037 4.6219 13.222 4.44255 13.1863C4.26319 13.1506 4.09845 13.0626 3.96914 12.9333C3.83984 12.8041 3.75178 12.6394 3.7161 12.4601C3.68043 12.2808 3.69874 12.095 3.76872 11.9261C3.8387 11.7572 3.9572 11.6128 4.10925 11.5113C4.2613 11.4097 4.44006 11.3555 4.62292 11.3555C4.86814 11.3555 5.10331 11.4529 5.2767 11.6262C5.4501 11.7995 5.54751 12.0346 5.54751 12.2798ZM12.4158 12.2798C12.4158 12.4626 12.3616 12.6413 12.26 12.7933C12.1584 12.9453 12.014 13.0637 11.8451 13.1337C11.6761 13.2037 11.4902 13.222 11.3109 13.1863C11.1315 13.1506 10.9668 13.0626 10.8375 12.9333C10.7082 12.8041 10.6201 12.6394 10.5844 12.4601C10.5488 12.2808 10.5671 12.095 10.6371 11.9261C10.707 11.7572 10.8255 11.6128 10.9776 11.5113C11.1296 11.4097 11.3084 11.3555 11.4913 11.3555C11.7365 11.3555 11.9717 11.4529 12.145 11.6262C12.3184 11.7995 12.4158 12.0346 12.4158 12.2798ZM2.98509 3.43305H13.1291L12.4092 7.38107C12.3815 7.53262 12.3016 7.6697 12.1834 7.76857C12.0652 7.86744 11.9162 7.92187 11.762 7.92243H3.804L2.98509 3.43305Z" fill="#232323"/>
</svg>
