<svg width="14" height="13" viewBox="0 0 14 13" fill="none" xmlns="http://www.w3.org/2000/svg">
<path d="M7 13C6.91152 13.0009 6.82436 12.9776 6.74722 12.9323C6.46852 12.7698 0 8.93071 0 4.06249C0 3.20985 0.256812 2.37881 0.734058 1.68711C1.2113 0.995409 1.88479 0.478104 2.65911 0.208474C3.43344 -0.0611566 4.26935 -0.069443 5.04843 0.184788C5.82751 0.43902 6.51027 0.94288 7 1.625C7.48973 0.94288 8.17249 0.43902 8.95157 0.184788C9.73065 -0.069443 10.5666 -0.0611566 11.3409 0.208474C12.1152 0.478104 12.7887 0.995409 13.2659 1.68711C13.7432 2.37881 14 3.20985 14 4.06249C14 6.13436 12.8528 8.2604 10.5907 10.3864C9.56358 11.3511 8.44517 12.2041 7.25278 12.9323C7.17564 12.9776 7.08848 13.0009 7 13ZM3.88889 1.08333C3.13253 1.08333 2.40715 1.39721 1.87233 1.95591C1.3375 2.51461 1.03704 3.27237 1.03704 4.06249C1.03704 7.79998 5.83333 11.0838 7 11.8286C8.16667 11.0838 12.963 7.79998 12.963 4.06249C12.9636 3.37378 12.7357 2.70613 12.3182 2.17312C11.9007 1.64011 11.3193 1.27468 10.6729 1.139C10.0266 1.00332 9.35519 1.10577 8.77299 1.42892C8.19079 1.75207 7.73375 2.27596 7.47963 2.91145C7.44056 3.0108 7.37411 3.09577 7.28871 3.15557C7.2033 3.21537 7.10281 3.2473 7 3.2473C6.89719 3.2473 6.7967 3.21537 6.71129 3.15557C6.62589 3.09577 6.55944 3.0108 6.52037 2.91145C6.30455 2.36861 5.93918 1.90501 5.47065 1.57952C5.00212 1.25402 4.45156 1.08132 3.88889 1.08333Z" fill="#232323"/>
</svg>
