<svg width="14" height="14" viewBox="0 0 14 14" fill="none" xmlns="http://www.w3.org/2000/svg">
<path fill-rule="evenodd" clip-rule="evenodd" d="M3.78316 10.7499C6.17891 10.3999 7.82846 10.43 10.2274 10.7622C10.4011 10.7873 10.5598 10.8745 10.6743 11.0076C10.7887 11.1408 10.8512 11.3108 10.85 11.4863C10.85 11.6543 10.7923 11.8174 10.688 11.9448C10.5062 12.1669 10.3199 12.3854 10.1294 12.6H11.0537C11.1118 12.5307 11.1703 12.46 11.2294 12.3883C11.437 12.1337 11.5503 11.8152 11.55 11.4867C11.55 10.7779 11.0327 10.1672 10.3233 10.0692C7.86766 9.72931 6.15126 9.69676 3.68201 10.0576C2.96521 10.1623 2.45001 10.7825 2.45001 11.4961C2.45001 11.8129 2.55326 12.1261 2.74891 12.3799C2.80666 12.4548 2.86371 12.5283 2.92041 12.6004H3.82236C3.64506 12.3881 3.47212 12.1722 3.30366 11.9529C3.20355 11.8216 3.14954 11.6609 3.15001 11.4958C3.15001 11.1188 3.42091 10.8028 3.78316 10.7499ZM7.00001 7.35001C7.27579 7.35001 7.54886 7.29569 7.80365 7.19016C8.05843 7.08462 8.28993 6.92994 8.48494 6.73494C8.67994 6.53993 8.83462 6.30843 8.94016 6.05365C9.04569 5.79886 9.10001 5.52579 9.10001 5.25001C9.10001 4.97424 9.04569 4.70116 8.94016 4.44638C8.83462 4.19159 8.67994 3.96009 8.48494 3.76509C8.28993 3.57009 8.05843 3.4154 7.80365 3.30987C7.54886 3.20433 7.27579 3.15001 7.00001 3.15001C6.44306 3.15001 5.90891 3.37126 5.51509 3.76509C5.12126 4.15891 4.90001 4.69306 4.90001 5.25001C4.90001 5.80697 5.12126 6.34111 5.51509 6.73494C5.90891 7.12876 6.44306 7.35001 7.00001 7.35001ZM7.00001 8.05001C7.74262 8.05001 8.45481 7.75501 8.97991 7.22991C9.50501 6.70481 9.80001 5.99262 9.80001 5.25001C9.80001 4.50741 9.50501 3.79521 8.97991 3.27011C8.45481 2.74501 7.74262 2.45001 7.00001 2.45001C6.25741 2.45001 5.54522 2.74501 5.02011 3.27011C4.49501 3.79521 4.20001 4.50741 4.20001 5.25001C4.20001 5.99262 4.49501 6.70481 5.02011 7.22991C5.54522 7.75501 6.25741 8.05001 7.00001 8.05001Z" fill="#232323"/>
<path fill-rule="evenodd" clip-rule="evenodd" d="M7 13.3C10.4794 13.3 13.3 10.4794 13.3 7C13.3 3.52065 10.4794 0.7 7 0.7C3.52065 0.7 0.7 3.52065 0.7 7C0.7 10.4794 3.52065 13.3 7 13.3ZM7 14C10.8661 14 14 10.8661 14 7C14 3.1339 10.8661 0 7 0C3.1339 0 0 3.1339 0 7C0 10.8661 3.1339 14 7 14Z" fill="#232323"/>
</svg>
