<svg width="11" height="11" viewBox="0 0 11 11" fill="none" xmlns="http://www.w3.org/2000/svg">
<path fill-rule="evenodd" clip-rule="evenodd" d="M6.92409 7.59388C6.07286 8.27407 4.99351 8.60248 3.90771 8.51167C2.82191 8.42085 1.8121 7.9177 1.08567 7.10555C0.359246 6.29341 -0.0286511 5.23392 0.00165049 4.14469C0.0319521 3.05546 0.478152 2.01918 1.24861 1.24868C2.01906 0.478179 3.05528 0.0319539 4.14445 0.00165059C5.23362 -0.0286527 6.29305 0.359266 7.10514 1.08573C7.91724 1.8122 8.42037 2.82207 8.51118 3.90793C8.60199 4.99379 8.27359 6.07321 7.59344 6.92449L10.8493 10.1799C10.8958 10.2232 10.9331 10.2755 10.959 10.3336C10.9849 10.3917 10.9988 10.4544 10.9999 10.518C11.001 10.5816 10.9894 10.6448 10.9655 10.7038C10.9417 10.7627 10.9063 10.8163 10.8613 10.8613C10.8163 10.9063 10.7627 10.9417 10.7038 10.9655C10.6448 10.9893 10.5816 11.001 10.518 10.9999C10.4545 10.9988 10.3917 10.9849 10.3337 10.959C10.2756 10.9331 10.2233 10.8958 10.1799 10.8493L6.92409 7.59388ZM1.91975 6.60748C1.45628 6.14394 1.14062 5.5534 1.01266 4.9105C0.884704 4.26759 0.950188 3.60119 1.20084 2.99549C1.45149 2.3898 1.87606 1.87201 2.42089 1.50756C2.96572 1.14311 3.60635 0.948353 4.26183 0.947912C4.9173 0.947471 5.5582 1.14136 6.10352 1.50508C6.64884 1.8688 7.0741 2.38602 7.32557 2.99137C7.57704 3.59673 7.64342 4.26305 7.51632 4.90612C7.38923 5.54919 7.07436 6.14015 6.61152 6.60432L6.60836 6.60748L6.6052 6.61C5.98327 7.23053 5.14048 7.57881 4.26196 7.57833C3.38343 7.57786 2.54101 7.22867 1.91975 6.60748Z" fill="#232323" fill-opacity="0.5"/>
</svg>
